{"title":"Dammu (2012) TAMiL DVDRip 1CDRip XviD-NRG","uid":7525860,"size":730858319,"categoryP":"video","categoryS":"movies","magnet":"?xt=urn:btih:35bd0d6006f1624499acb11583e9c85dff063a9e&amp;dn=Dammu+%282012%29+TAMiL+DVDRip+1CDRip+XviD-NRG&amp;tr=udp%3A%2F%2Ftracker.openbittorrent.com%3A80&amp;tr=udp%3A%2F%2Fopen.demonii.com%3A1337&amp;tr=udp%3A%2F%2Ftracker.coppersurfer.tk%3A6969&amp;tr=udp%3A%2F%2Fexodus.desync.com%3A6969","seeders":0,"leechers":1,"uploader":"rajerts","files":-1,"time":1344784931,"description":"Sample, Screenshots, Trailer, Movie Poste &amp; Synopsis @ [CHECK BEFORE DOWNLOAD]\n\n\nNFO:\nFormat                                   : AVI\nFormat/Info                              : Audio Video Interleave\nFile size                                : 697 MiB\nDuration                                 : 2h 35mn\nOverall bit rate mode                    : Variable\nOverall bit rate                         : 629 Kbps\nWriting application                      : VirtualDubMod 1.5.10.2 (build 2540/release)\nWriting library                          : VirtualDubMod build 2540/release\n\nVideo\nID                                       : 0\nFormat                                   : MPEG-4 Visual\nFormat profile                           : Advanced Simple@L5\nFormat settings, BVOP                    : 3\nFormat settings, QPel                    : No\nFormat settings, GMC                     : No warppoints\nFormat settings, Matrix                  : Custom\nCodec ID                                 : XVID\nCodec ID/Hint                            : XviD\nDuration                                 : 2h 35mn\nBit rate                                 : 542 Kbps\nWidth                                    : 608 pixels\nHeight                                   : 256 pixels\nDisplay aspect ratio                     : 2.40:1\nFrame rate                               : 23.976 fps\nColor space                              : YUV\nChroma subsampling                       : 4:2:0\nBit depth                                : 8 bits\nScan type                                : Progressive\nCompression mode                         : Lossy\nBits/(Pixel*Frame)                       : 0.145\nStream size                              : 601 MiB (86%)\nWriting library                          : XviD 1.2.1 (UTC 2008-12-04)\n\nAudio\nID                                       : 1\nFormat                                   : MPEG Audio\nFormat version                           : Version 1\nFormat profile                           : Layer 3\nMode                                     : Joint stereo\nMode extension                           : MS Stereo\nCodec ID                                 : 55\nCodec ID/Hint                            : MP3\nDuration                                 : 2h 35mn\nBit rate mode                            : Variable\nBit rate                                 : 80.0 Kbps\nChannel(s)                               : 2 channels\nSampling rate                            : 32.0 KHz\nCompression mode                         : Lossy\nDelay relative to video                  : 252ms\nStream size                              : 85.3 MiB (12%)\nAlignment                                : Split accross interleaves\nInterleave, duration                     : 36 ms (0.86 video frame)\nInterleave, preload duration             : 1059 ms\nWriting library                          : LAME3.99r\nEncoding settings                        : -m j -V 4 -q 2 -lowpass 13.5 --abr 80\n\n\nYOUTUBE:\n","torrent":{"xt":"urn:btih:35bd0d6006f1624499acb11583e9c85dff063a9e","amp;dn":"Dammu+%282012%29+TAMiL+DVDRip+1CDRip+XviD-NRG","amp;tr":["udp%3A%2F%2Ftracker.openbittorrent.com%3A80","udp%3A%2F%2Fopen.demonii.com%3A1337","udp%3A%2F%2Ftracker.coppersurfer.tk%3A6969","udp%3A%2F%2Fexodus.desync.com%3A6969"],"infoHash":"35bd0d6006f1624499acb11583e9c85dff063a9e","infoHashBuffer":{"type":"Buffer","data":[53,189,13,96,6,241,98,68,153,172,177,21,131,233,200,93,255,6,58,158]},"announce":[],"urlList":[]}}